<?xml version="1.0" encoding="utf-8"?>
<!-- Generator: Adobe Illustrator 24.3.0, SVG Export Plug-In . SVG Version: 6.00 Build 0)  -->
<svg version="1.1" id="Layer_1" xmlns="http://www.w3.org/2000/svg" xmlns:xlink="http://www.w3.org/1999/xlink" x="0px" y="0px"
	 viewBox="0 0 299 112" style="enable-background:new 0 0 299 112;" xml:space="preserve">
<style type="text/css">
	.st0{fill-rule:evenodd;clip-rule:evenodd;fill:#FFC731;}
	.st1{fill-rule:evenodd;clip-rule:evenodd;fill:#0CB5DD;}
	.st2{fill-rule:evenodd;clip-rule:evenodd;fill:#FFFFFF;}
</style>
<g id="Слой_x0020_1">
	<path class="st0" d="M161.9,96.5c-74.7,0-135.2-21.2-135.2-47.4c0-23.4,48.4-42.8,112.1-46.7C62.6,4.4,2.5,27.6,2.5,56
		c0,29.6,65.8,53.7,147,53.7c81.2,0,147-24,147-53.7c0-0.7,0-1.3-0.1-1.9C289.3,77.9,231.8,96.5,161.9,96.5L161.9,96.5z"/>
	<path class="st1" d="M174.3,107.5c-81.2,0-147-23.8-147-53.1c0-25.6,50-46.9,116.5-52C65.3,3.4,2.5,27,2.5,56
		c0,29.6,65.8,53.7,147,53.7c16.4,0,32.3-1,47-2.8C189.3,107.3,181.9,107.5,174.3,107.5L174.3,107.5z"/>
	<g id="_152200352">
		<path id="_152205248" class="st2" d="M94.6,53.4l2.1-6.5l0.1,0l1.9,6.5L94.6,53.4z M95.3,39.9L95.3,39.9c-0.9,0-1.7,0.5-2.3,1.1
			l-7.5,19.8l6.7,0l1-3h6.9l0.9,3h6.9l-7.9-21L95.3,39.9L95.3,39.9z"/>
		<path id="_152209904" class="st2" d="M126.4,45.8L126.4,45.8C126.4,45.8,126.4,45.8,126.4,45.8l0.5-0.6c0.4-0.5,0.6-1.1,0.6-1.7
			l0,0v-3.6h-18.2v5.4h9.5l-9.5,9.9c-0.3,0.4-0.5,0.9-0.6,1.5v4.2H128v-5.4h-10.6L126.4,45.8L126.4,45.8z"/>
		<path id="_152210096" class="st2" d="M256.5,48.1c-3.1-0.8-6.1-1.1-6.3-2.6c0-1.2,1.5-1.4,2.4-1.4c0.7,0,1.4,0.1,2,0.5
			c0.5,0.4,0.9,0.9,0.8,1.7l6.3,0c-0.2-5.1-4.3-6.8-9-6.8c-4.4,0-8.7,2.1-8.7,6.9c0,4.2,3.9,5.1,7.3,6.1c3.7,1,4.7,1.3,4.7,2.4
			c0,1.6-1.7,1.9-2.8,1.9c-1.2,0-2.7-0.3-3.2-1.5c-0.2-0.4-0.2-0.8-0.2-1.4h-6.7c0.1,6.7,7,7.5,9.5,7.5c4.8,0,10-1.8,10-7.2
			C262.6,50.3,259.6,48.9,256.5,48.1z"/>
		<path id="_152210288" class="st2" d="M211.2,41.7l-2.6,10.5h-0.1l-2.6-10.4c-0.2-1.1-1.1-1.9-2.3-1.9l-7.7,0v21l6.3,0V47.4h0.1
			l3.8,13.4h5l3.7-13.4h0.1v13.4h6.3v-21h-7.7C212.3,40,211.4,40.7,211.2,41.7L211.2,41.7z"/>
		<path id="_152210480" class="st2" d="M239.2,39.9L239.2,39.9c-0.9,0-1.7,0.5-2.3,1.1l0,0l-3.2,6.6l-3.1-6.6c0,0,0,0,0-0.1
			c-0.5-0.6-1.3-1-2.2-1.1v0h-5.6l7.6,13.2v7.7l6.7,0v-7.7l7.7-13.2L239.2,39.9L239.2,39.9z"/>
		<path id="_152210672" class="st2" d="M137.8,53.4l2.1-6.5l0.1,0l1.9,6.5L137.8,53.4z M138.5,39.9L138.5,39.9c-0.1,0-0.2,0-0.3,0
			c0,0-0.1,0-0.1,0c-0.1,0-0.1,0-0.2,0c-0.1,0-0.1,0-0.2,0.1c0,0-0.1,0-0.1,0c-0.1,0-0.1,0.1-0.2,0.1c0,0,0,0-0.1,0
			c-0.1,0-0.2,0.1-0.2,0.1c0,0,0,0,0,0c-0.1,0-0.2,0.1-0.2,0.2c0,0,0,0,0,0c-0.1,0.1-0.2,0.1-0.2,0.2v0c-0.1,0.1-0.1,0.1-0.2,0.2
			c0,0,0,0,0,0c0,0.1-0.1,0.1-0.1,0.2l-7.5,19.7l6.7,0l1-3h6.9l0.9,3h6.9l-7.9-21L138.5,39.9L138.5,39.9L138.5,39.9z"/>
		<polygon id="_152211032" class="st2" points="187,47.2 180.8,47.2 180.8,39.9 174.1,39.9 174.1,60.9 180.8,60.9 180.8,52.6 
			187,52.6 187,60.9 193.7,60.9 193.7,39.9 187,39.9 		"/>
		<path id="_152210864" class="st2" d="M84.7,39.9h-6.9v0c-0.9,0-1.7,0.5-2.3,1.1l-5,6.1h-0.1v-7.2h-6.7v21l6.7,0v-6.2l1.1-1.2
			l4.8,7.4h8l-8.4-12L84.7,39.9L84.7,39.9z"/>
		<path id="_152211296" class="st2" d="M172.7,39.9h-6.9v0c-0.9,0-1.7,0.5-2.3,1.1l-5,6.1h-0.1v-7.2h-6.7v21l6.7,0v-6.2l1.1-1.2
			l4.8,7.4h8l-8.4-12L172.7,39.9L172.7,39.9z"/>
	</g>
</g>
</svg>
